<?xml version="1.0" standalone="no"?>
<!DOCTYPE svg PUBLIC "-//W3C//DTD SVG 1.1//EN" "http://www.w3.org/Graphics/SVG/1.1/DTD/svg11.dtd">
<svg
        preserveAspectRatio="xMidYMid meet"
        viewBox="0 0 400 400"
        xmlns="http://www.w3.org/2000/svg"
        version="1.0" style="max-height: 500px"
>
    <g stroke="none" fill="currentColor" transform="translate(0.000000,500.000000) scale(0.180000,-0.180000)">
        <path d="M950 2674 c-14 -2 -56 -9 -94 -15 -201 -33 -405 -145 -556 -305 -457&#10;-486 -326 -1276 264 -1590 165 -88 285 -117 481 -117 119 0 155 5 240 27 228&#10;60 427 192 567 376 61 80 140 240 167 338 155 567 -198 1145 -773 1268 -71 15&#10;-251 26 -296 18z m150 -455 c84 -19 172 -70 241 -139 163 -164 195 -391 87&#10;-605 -41 -81 -41 -127 1 -168 80 -80 210 -2 180 108 -10 36 -52 75 -82 75&#10;l-22 1 24 19 c15 13 38 20 67 20 36 0 49 -6 79 -35 26 -27 35 -44 35 -70 0&#10;-29 4 -35 33 -44 76 -25 113 -106 80 -170 -21 -41 -43 -52 -43 -21 0 35 -27&#10;76 -60 90 -47 20 -94 6 -153 -43 -75 -64 -141 -102 -232 -133 -71 -25 -94 -28&#10;-205 -28 -114 0 -133 2 -211 30 -259 92 -432 317 -447 579 -13 248 140 466&#10;375 530 58 16 192 18 253 4z"/>
    </g>
</svg>
